<svg width="48" height="48" viewBox="0 0 48 48" fill="none" xmlns="http://www.w3.org/2000/svg">
<g filter="url(#filter0_d_3107_4878)">
<circle cx="24" cy="24" r="20" fill="white"/>
</g>
<g clip-path="url(#clip0_3107_4878)">
<path d="M24 36C27.1826 36 30.2348 34.7357 32.4853 32.4853C34.7357 30.2348 36 27.1826 36 24C36 20.8174 34.7357 17.7652 32.4853 15.5147C30.2348 13.2643 27.1826 12 24 12C20.8174 12 17.7652 13.2643 15.5147 15.5147C13.2643 17.7652 12 20.8174 12 24C12 27.1826 13.2643 30.2348 15.5147 32.4853C17.7652 34.7357 20.8174 36 24 36V36ZM25.395 21.882L23.895 28.9395C23.79 29.4495 23.9385 29.739 24.351 29.739C24.642 29.739 25.0815 29.634 25.38 29.37L25.248 29.994C24.8175 30.513 23.868 30.891 23.0505 30.891C21.996 30.891 21.5475 30.258 21.8385 28.9125L22.9455 23.7105C23.0415 23.271 22.9545 23.112 22.515 23.0055L21.8385 22.884L21.9615 22.3125L25.3965 21.882H25.395ZM24 20.25C23.6022 20.25 23.2206 20.092 22.9393 19.8107C22.658 19.5294 22.5 19.1478 22.5 18.75C22.5 18.3522 22.658 17.9706 22.9393 17.6893C23.2206 17.408 23.6022 17.25 24 17.25C24.3978 17.25 24.7794 17.408 25.0607 17.6893C25.342 17.9706 25.5 18.3522 25.5 18.75C25.5 19.1478 25.342 19.5294 25.0607 19.8107C24.7794 20.092 24.3978 20.25 24 20.25V20.25Z" fill="black"/>
</g>
<defs>
<filter id="filter0_d_3107_4878" x="0" y="0" width="48" height="48" filterUnits="userSpaceOnUse" color-interpolation-filters="sRGB">
<feFlood flood-opacity="0" result="BackgroundImageFix"/>
<feColorMatrix in="SourceAlpha" type="matrix" values="0 0 0 0 0 0 0 0 0 0 0 0 0 0 0 0 0 0 127 0" result="hardAlpha"/>
<feOffset/>
<feGaussianBlur stdDeviation="2"/>
<feComposite in2="hardAlpha" operator="out"/>
<feColorMatrix type="matrix" values="0 0 0 0 0 0 0 0 0 0 0 0 0 0 0 0 0 0 0.25 0"/>
<feBlend mode="normal" in2="BackgroundImageFix" result="effect1_dropShadow_3107_4878"/>
<feBlend mode="normal" in="SourceGraphic" in2="effect1_dropShadow_3107_4878" result="shape"/>
</filter>
<clipPath id="clip0_3107_4878">
<rect width="24" height="24" fill="white" transform="translate(12 12)"/>
</clipPath>
</defs>
</svg>
