<svg width="48" height="48" viewBox="0 0 48 48" fill="none" xmlns="http://www.w3.org/2000/svg">
<g filter="url(#filter0_d_3107_4869)">
<circle cx="24" cy="24" r="20" fill="white"/>
</g>
<path d="M19.7719 14.4391L20.8479 14.0951C21.8569 13.7731 22.9349 14.2941 23.3669 15.3121L24.2269 17.3401C24.6009 18.2231 24.3929 19.2621 23.7129 19.9081L21.8179 21.7061C21.9349 22.7821 22.2969 23.8411 22.9029 24.8831C23.4784 25.8912 24.2503 26.7736 25.1729 27.4781L27.4489 26.7181C28.3109 26.4311 29.2509 26.7621 29.7789 27.5391L31.0119 29.3491C31.6269 30.2531 31.5159 31.4991 30.7529 32.2651L29.9359 33.0861C29.1219 33.9031 27.9589 34.2001 26.8839 33.8641C24.3439 33.0721 22.0109 30.7211 19.8809 26.8111C17.7479 22.8951 16.9949 19.5711 17.6229 16.8431C17.8869 15.6951 18.7039 14.7801 19.7719 14.4391V14.4391Z" fill="black"/>
<defs>
<filter id="filter0_d_3107_4869" x="0" y="0" width="48" height="48" filterUnits="userSpaceOnUse" color-interpolation-filters="sRGB">
<feFlood flood-opacity="0" result="BackgroundImageFix"/>
<feColorMatrix in="SourceAlpha" type="matrix" values="0 0 0 0 0 0 0 0 0 0 0 0 0 0 0 0 0 0 127 0" result="hardAlpha"/>
<feOffset/>
<feGaussianBlur stdDeviation="2"/>
<feComposite in2="hardAlpha" operator="out"/>
<feColorMatrix type="matrix" values="0 0 0 0 0 0 0 0 0 0 0 0 0 0 0 0 0 0 0.25 0"/>
<feBlend mode="normal" in2="BackgroundImageFix" result="effect1_dropShadow_3107_4869"/>
<feBlend mode="normal" in="SourceGraphic" in2="effect1_dropShadow_3107_4869" result="shape"/>
</filter>
</defs>
</svg>
