<svg width="48" height="48" viewBox="0 0 48 48" fill="none" xmlns="http://www.w3.org/2000/svg">
<g filter="url(#filter0_d_3119_4812)">
<circle cx="24" cy="24" r="20" fill="white"/>
</g>
<path fill-rule="evenodd" clip-rule="evenodd" d="M17.7363 14.2854C21.9038 13.9049 26.0962 13.9049 30.2637 14.2854L32.0617 14.45C32.9322 14.5294 33.751 14.9062 34.3859 15.5196C35.0208 16.1329 35.4347 16.947 35.5608 17.8303C36.1464 21.9221 36.1464 26.0791 35.5608 30.1709C35.4345 31.054 35.0205 31.8678 34.3856 32.4809C33.7507 33.094 32.932 33.4707 32.0617 33.55L30.2637 33.7146C26.0962 34.0951 21.9038 34.0951 17.7363 33.7146L15.9383 33.55C15.068 33.4707 14.2493 33.094 13.6144 32.4809C12.9795 31.8678 12.5655 31.054 12.4392 30.1709C11.8536 26.0791 11.8536 21.9221 12.4392 17.8303C12.5653 16.947 12.9792 16.1329 13.6141 15.5196C14.249 14.9062 15.0678 14.5294 15.9383 14.45L17.7363 14.2854ZM16.7224 17.7577C16.5871 17.6832 16.4351 17.6458 16.2814 17.6492C16.1277 17.6526 15.9775 17.6967 15.8455 17.7772C15.7135 17.8577 15.6041 17.9718 15.5282 18.1083C15.4523 18.2449 15.4124 18.3992 15.4123 18.5562V30.0499C15.4123 30.2906 15.5059 30.5214 15.6725 30.6915C15.8391 30.8617 16.0651 30.9573 16.3007 30.9573C16.5363 30.9573 16.7623 30.8617 16.9289 30.6915C17.0955 30.5214 17.1891 30.2906 17.1891 30.0499V20.0758L23.5783 23.5893C23.8413 23.7344 24.1587 23.7344 24.4217 23.5893L30.8109 20.0758V30.0499C30.8109 30.2906 30.9045 30.5214 31.0711 30.6915C31.2377 30.8617 31.4637 30.9573 31.6993 30.9573C31.9349 30.9573 32.1609 30.8617 32.3275 30.6915C32.4941 30.5214 32.5877 30.2906 32.5877 30.0499V18.5562C32.5876 18.3992 32.5477 18.2449 32.4718 18.1083C32.3959 17.9718 32.2866 17.8577 32.1545 17.7772C32.0225 17.6967 31.8723 17.6526 31.7186 17.6492C31.5649 17.6458 31.4129 17.6832 31.2776 17.7577L24 21.7599L16.7224 17.7577Z" fill="black"/>
<defs>
<filter id="filter0_d_3119_4812" x="0" y="0" width="48" height="48" filterUnits="userSpaceOnUse" color-interpolation-filters="sRGB">
<feFlood flood-opacity="0" result="BackgroundImageFix"/>
<feColorMatrix in="SourceAlpha" type="matrix" values="0 0 0 0 0 0 0 0 0 0 0 0 0 0 0 0 0 0 127 0" result="hardAlpha"/>
<feOffset/>
<feGaussianBlur stdDeviation="2"/>
<feComposite in2="hardAlpha" operator="out"/>
<feColorMatrix type="matrix" values="0 0 0 0 0 0 0 0 0 0 0 0 0 0 0 0 0 0 0.25 0"/>
<feBlend mode="normal" in2="BackgroundImageFix" result="effect1_dropShadow_3119_4812"/>
<feBlend mode="normal" in="SourceGraphic" in2="effect1_dropShadow_3119_4812" result="shape"/>
</filter>
</defs>
</svg>
