<svg width="48" height="48" viewBox="0 0 48 48" fill="none" xmlns="http://www.w3.org/2000/svg">
<g filter="url(#filter0_d_3107_4972)">
<circle cx="24" cy="24" r="20" fill="white"/>
</g>
<path fill-rule="evenodd" clip-rule="evenodd" d="M25.984 14.542C26.071 14.711 26.093 14.928 26.136 15.362C26.218 16.182 26.259 16.592 26.431 16.818C26.5382 16.9583 26.6806 17.0678 26.8437 17.1352C27.0069 17.2027 27.185 17.2257 27.36 17.202C27.64 17.165 27.96 16.904 28.598 16.382C28.935 16.105 29.104 15.967 29.285 15.909C29.5155 15.8353 29.7649 15.8478 29.987 15.944C30.162 16.02 30.317 16.174 30.624 16.482L31.518 17.376C31.826 17.684 31.98 17.838 32.056 18.013C32.1522 18.2351 32.1647 18.4845 32.091 18.715C32.033 18.896 31.895 19.065 31.619 19.402C31.096 20.041 30.835 20.36 30.797 20.641C30.7736 20.8159 30.7969 20.9939 30.8645 21.1569C30.9321 21.3198 31.0417 21.462 31.182 21.569C31.407 21.741 31.818 21.782 32.639 21.864C33.072 21.907 33.289 21.929 33.459 22.016C33.6735 22.1272 33.8404 22.3123 33.929 22.537C34 22.714 34 22.932 34 23.368V24.632C34 25.068 34 25.286 33.93 25.462C33.8411 25.6874 33.6734 25.8729 33.458 25.984C33.289 26.071 33.072 26.093 32.638 26.136C31.818 26.218 31.408 26.259 31.182 26.431C31.0417 26.5382 30.9322 26.6806 30.8648 26.8437C30.7973 27.0069 30.7743 27.185 30.798 27.36C30.836 27.64 31.097 27.96 31.619 28.598C31.895 28.935 32.033 29.103 32.091 29.285C32.1647 29.5155 32.1522 29.7649 32.056 29.987C31.98 30.162 31.826 30.316 31.518 30.624L30.624 31.517C30.316 31.826 30.162 31.98 29.987 32.055C29.7649 32.1512 29.5155 32.1637 29.285 32.09C29.104 32.032 28.935 31.894 28.598 31.618C27.959 31.096 27.64 30.835 27.36 30.798C27.185 30.7743 27.0069 30.7973 26.8437 30.8648C26.6806 30.9322 26.5382 31.0417 26.431 31.182C26.259 31.407 26.218 31.817 26.136 32.638C26.093 33.072 26.071 33.289 25.984 33.458C25.8732 33.6732 25.6881 33.8409 25.463 33.93C25.286 34 25.068 34 24.632 34H23.368C22.932 34 22.714 34 22.538 33.93C22.3126 33.8411 22.1271 33.6734 22.016 33.458C21.929 33.289 21.907 33.072 21.864 32.638C21.782 31.818 21.741 31.408 21.569 31.182C21.4619 31.0418 21.3197 30.9325 21.1567 30.8651C20.9937 30.7976 20.8158 30.7745 20.641 30.798C20.36 30.835 20.041 31.096 19.402 31.618C19.065 31.895 18.896 32.033 18.715 32.091C18.4845 32.1647 18.2351 32.1522 18.013 32.056C17.838 31.98 17.683 31.826 17.376 31.518L16.482 30.624C16.174 30.316 16.02 30.162 15.944 29.987C15.8478 29.7649 15.8353 29.5155 15.909 29.285C15.967 29.104 16.105 28.935 16.381 28.598C16.904 27.959 17.165 27.64 17.202 27.359C17.2255 27.1842 17.2024 27.0063 17.1349 26.8433C17.0675 26.6803 16.9582 26.5381 16.818 26.431C16.593 26.259 16.182 26.218 15.361 26.136C14.928 26.093 14.711 26.071 14.541 25.984C14.3265 25.8728 14.1596 25.6877 14.071 25.463C14 25.286 14 25.068 14 24.632V23.368C14 22.932 14 22.714 14.07 22.538C14.1589 22.3126 14.3266 22.1271 14.542 22.016C14.711 21.929 14.928 21.907 15.362 21.864C16.182 21.782 16.593 21.741 16.818 21.569C16.9583 21.462 17.0679 21.3198 17.1355 21.1569C17.2031 20.9939 17.2264 20.8159 17.203 20.641C17.165 20.36 16.903 20.041 16.381 19.401C16.105 19.064 15.967 18.896 15.909 18.714C15.8353 18.4835 15.8478 18.2341 15.944 18.012C16.02 17.838 16.174 17.683 16.482 17.375L17.376 16.482C17.684 16.174 17.838 16.019 18.013 15.944C18.2351 15.8478 18.4845 15.8353 18.715 15.909C18.896 15.967 19.065 16.105 19.402 16.381C20.041 16.903 20.36 17.164 20.64 17.202C20.8152 17.2258 20.9936 17.2027 21.157 17.135C21.3203 17.0674 21.4629 16.9577 21.57 16.817C21.74 16.592 21.782 16.182 21.864 15.361C21.907 14.928 21.929 14.711 22.016 14.541C22.127 14.3262 22.3121 14.1588 22.537 14.07C22.714 14 22.932 14 23.368 14H24.632C25.068 14 25.286 14 25.462 14.07C25.6874 14.1589 25.8729 14.3266 25.984 14.542ZM24 28C25.0609 28 26.0783 27.5786 26.8284 26.8284C27.5786 26.0783 28 25.0609 28 24C28 22.9391 27.5786 21.9217 26.8284 21.1716C26.0783 20.4214 25.0609 20 24 20C22.9391 20 21.9217 20.4214 21.1716 21.1716C20.4214 21.9217 20 22.9391 20 24C20 25.0609 20.4214 26.0783 21.1716 26.8284C21.9217 27.5786 22.9391 28 24 28Z" fill="black"/>
<defs>
<filter id="filter0_d_3107_4972" x="0" y="0" width="48" height="48" filterUnits="userSpaceOnUse" color-interpolation-filters="sRGB">
<feFlood flood-opacity="0" result="BackgroundImageFix"/>
<feColorMatrix in="SourceAlpha" type="matrix" values="0 0 0 0 0 0 0 0 0 0 0 0 0 0 0 0 0 0 127 0" result="hardAlpha"/>
<feOffset/>
<feGaussianBlur stdDeviation="2"/>
<feComposite in2="hardAlpha" operator="out"/>
<feColorMatrix type="matrix" values="0 0 0 0 0 0 0 0 0 0 0 0 0 0 0 0 0 0 0.25 0"/>
<feBlend mode="normal" in2="BackgroundImageFix" result="effect1_dropShadow_3107_4972"/>
<feBlend mode="normal" in="SourceGraphic" in2="effect1_dropShadow_3107_4972" result="shape"/>
</filter>
</defs>
</svg>
        