<svg width="48" height="48" viewBox="0 0 48 48" fill="none" xmlns="http://www.w3.org/2000/svg">
<g filter="url(#filter0_d_3119_4794)">
<circle cx="24" cy="24" r="20" fill="white"/>
</g>
<path d="M13.4694 23.9044C13.4689 25.7589 13.9556 27.5698 14.8812 29.1659L13.3809 34.6193L18.9867 33.1559C20.5372 33.9963 22.2745 34.4366 24.0399 34.4367H24.0445C29.8724 34.4367 34.6164 29.7155 34.6189 23.9127C34.62 21.1008 33.521 18.4566 31.5243 16.4673C29.528 14.4782 26.873 13.3821 24.0441 13.3809C18.2155 13.3809 13.4719 18.1017 13.4695 23.9044" fill="url(#paint0_linear_3119_4794)"/>
<path d="M13.092 23.901C13.0914 25.8223 13.5955 27.6979 14.5541 29.3511L13 35L18.8069 33.4842C20.4069 34.3527 22.2083 34.8106 24.0413 34.8113H24.0461C30.083 34.8113 34.9974 29.9203 35 23.9097C35.001 20.9967 33.8625 18.2576 31.7945 16.197C29.7263 14.1367 26.9763 13.0012 24.0461 13C18.0081 13 13.0944 17.8903 13.092 23.901H13.092ZM16.5501 29.0664L16.3333 28.7237C15.4218 27.281 14.9407 25.6137 14.9414 23.9017C14.9434 18.9057 19.0275 14.8411 24.0495 14.8411C26.4815 14.8422 28.7671 15.786 30.4862 17.4984C32.2052 19.2111 33.1511 21.4877 33.1505 23.909C33.1483 28.9049 29.0641 32.9701 24.0461 32.9701H24.0425C22.4085 32.9692 20.806 32.5324 19.4085 31.7068L19.076 31.5105L15.63 32.4099L16.5501 29.0663V29.0664Z" fill="url(#paint1_linear_3119_4794)"/>
<path d="M21.3077 19.3438C21.1026 18.8902 20.8869 18.881 20.6919 18.873C20.5322 18.8662 20.3497 18.8667 20.1673 18.8667C19.9848 18.8667 19.6882 18.9351 19.4375 19.2076C19.1866 19.4803 18.4795 20.1394 18.4795 21.48C18.4795 22.8206 19.4603 24.1161 19.597 24.2981C19.7339 24.4797 21.4905 27.3188 24.2725 28.411C26.5845 29.3186 27.055 29.1381 27.5568 29.0926C28.0587 29.0472 29.1762 28.4336 29.4042 27.7974C29.6324 27.1612 29.6324 26.6159 29.564 26.5019C29.4956 26.3884 29.313 26.3202 29.0393 26.184C28.7655 26.0477 27.4199 25.3885 27.1691 25.2976C26.9181 25.2067 26.7357 25.1614 26.5531 25.4342C26.3706 25.7066 25.8465 26.3202 25.6867 26.5019C25.5271 26.6841 25.3674 26.7067 25.0938 26.5704C24.8199 26.4337 23.9384 26.1463 22.8926 25.2182C22.079 24.4959 21.5297 23.604 21.37 23.3312C21.2103 23.0588 21.3529 22.9111 21.4901 22.7753C21.6131 22.6533 21.7639 22.4572 21.9009 22.2981C22.0374 22.139 22.0829 22.0255 22.1742 21.8437C22.2656 21.6618 22.2198 21.5027 22.1515 21.3664C22.0829 21.2301 21.5511 19.8827 21.3077 19.3439" fill="white"/>
<defs>
<filter id="filter0_d_3119_4794" x="0" y="0" width="48" height="48" filterUnits="userSpaceOnUse" color-interpolation-filters="sRGB">
<feFlood flood-opacity="0" result="BackgroundImageFix"/>
<feColorMatrix in="SourceAlpha" type="matrix" values="0 0 0 0 0 0 0 0 0 0 0 0 0 0 0 0 0 0 127 0" result="hardAlpha"/>
<feOffset/>
<feGaussianBlur stdDeviation="2"/>
<feComposite in2="hardAlpha" operator="out"/>
<feColorMatrix type="matrix" values="0 0 0 0 0 0 0 0 0 0 0 0 0 0 0 0 0 0 0.25 0"/>
<feBlend mode="normal" in2="BackgroundImageFix" result="effect1_dropShadow_3119_4794"/>
<feBlend mode="normal" in="SourceGraphic" in2="effect1_dropShadow_3119_4794" result="shape"/>
</filter>
<linearGradient id="paint0_linear_3119_4794" x1="23.9999" y1="34.6193" x2="23.9999" y2="13.3809" gradientUnits="userSpaceOnUse">
<stop stop-color="#1FAF38"/>
<stop offset="1" stop-color="#60D669"/>
</linearGradient>
<linearGradient id="paint1_linear_3119_4794" x1="24" y1="35" x2="24" y2="13" gradientUnits="userSpaceOnUse">
<stop stop-color="#F9F9F9"/>
<stop offset="1" stop-color="white"/>
</linearGradient>
</defs>
</svg>
